<?xml version="1.0" encoding="utf-8"?>
<!-- Generator: Adobe Illustrator 24.0.1, SVG Export Plug-In . SVG Version: 6.00 Build 0)  -->
<svg version="1.1" id="Layer_1" xmlns="http://www.w3.org/2000/svg" xmlns:xlink="http://www.w3.org/1999/xlink" x="0px" y="0px"
	 viewBox="0 0 2048 2048" style="enable-background:new 0 0 2048 2048;" xml:space="preserve">
<style type="text/css">
	.st0{fill:#DFE3EF;}
	.st1{opacity:0.7;}
	.st2{fill:#FFFFFF;}
	.st3{fill:#202736;}
</style>
<g>
	<g>
		<circle class="st0" cx="1024" cy="1024" r="1006.8"/>
	</g>
	<g class="st1">
		<circle class="st2" cx="1024" cy="1024" r="1006.8"/>
	</g>
</g>
<circle class="st3" cx="1024" cy="1024" r="919"/>
<g>
	<g>
		<path class="st0" d="M1655.1,1391c-125,214.4-356,359.3-621.3,362.8c-408.2,5.4-742.6-326.9-739.7-735.1
			C296.9,618,622.6,294.1,1024,294.1c33.5,0,66.4,2.3,98.7,6.6c-234.8,84.9-402.6,309.8-402.6,573.9c0,336.9,273.1,610,610,610
			C1449.6,1484.6,1561,1450.3,1655.1,1391L1655.1,1391z"/>
	</g>
	<g class="st1">
		<path class="st2" d="M1655.1,1391c-125,214.4-356,359.3-621.3,362.8c-408.2,5.4-742.6-326.9-739.7-735.1
			C296.9,618,622.6,294.1,1024,294.1c33.5,0,66.4,2.3,98.7,6.6c-234.8,84.9-402.6,309.8-402.6,573.9c0,336.9,273.1,610,610,610
			C1449.6,1484.6,1561,1450.3,1655.1,1391L1655.1,1391z"/>
	</g>
</g>
<g>
	<g>
		<polygon class="st0" points="1281.5,566.6 1191.8,561.1 1151.9,480.7 1201.5,405.8 1291.1,411.4 1331.1,491.8 		"/>
	</g>
	<g class="st1">
		<polygon class="st2" points="1281.5,566.6 1191.8,561.1 1151.9,480.7 1201.5,405.8 1291.1,411.4 1331.1,491.8 		"/>
	</g>
</g>
<g>
	<g>
		<polygon class="st0" points="1094,856.5 972.2,867 902.3,766.8 954,656.1 1075.8,645.6 1145.8,745.8 		"/>
	</g>
	<g class="st1">
		<polygon class="st2" points="1094,856.5 972.2,867 902.3,766.8 954,656.1 1075.8,645.6 1145.8,745.8 		"/>
	</g>
</g>
<g>
	<g>
		<polygon class="st0" points="1524.2,1278.9 1287.4,1323.3 1130.6,1140.3 1210.6,913.1 1447.5,868.8 1604.3,1051.7 		"/>
	</g>
	<g class="st1">
		<polygon class="st2" points="1524.2,1278.9 1287.4,1323.3 1130.6,1140.3 1210.6,913.1 1447.5,868.8 1604.3,1051.7 		"/>
	</g>
</g>
</svg>
